Coordinates
version=1
nRows=5
nColumns=40
inDegrees=yes

Units are S.I. units (second, meters, Newtons, ...)
Angles are in degrees.

endheader
time	pelvis_tilt	pelvis_list	pelvis_rotation	pelvis_tx	pelvis_ty	pelvis_tz	hip_flexion_r	hip_adduction_r	hip_rotation_r	knee_angle_r	knee_angle_r_beta	ankle_angle_r	subtalar_angle_r	mtp_angle_r	hip_flexion_l	hip_adduction_l	hip_rotation_l	knee_angle_l	knee_angle_l_beta	ankle_angle_l	subtalar_angle_l	mtp_angle_l	lumbar_extension	lumbar_bending	lumbar_rotation	arm_flex_r	arm_add_r	arm_rot_r	elbow_flex_r	pro_sup_r	wrist_flex_r	wrist_dev_r	arm_flex_l	arm_add_l	arm_rot_l	elbow_flex_l	pro_sup_l	wrist_flex_l	wrist_dev_l
      9.20000000	      4.39268577	     24.72161178	     82.25513726	      0.53110846	      1.01543555	     -0.96897393	    -27.73404814	     -1.61250888	      8.60469167	      0.86222375	      0.01504864	      9.58909409	      0.00000000	      0.00000000	    -27.72600622	      3.08977050	     -7.69653964	      4.58172099	      0.07996612	     14.24141886	      0.00000000	      0.00000000	    -35.90363742	     -1.05575541	      8.06494747	     -0.13894006	     -6.23709604	    -18.28562840	     47.54299908	     88.81661057	      0.00000000	      0.00000000	     -7.94183251	     -6.47081171	    -12.48018254	     70.19259078	     88.71957025	      0.00000000	      0.00000000
      9.21000000	      4.38268545	     24.84902935	     82.39618936	      0.52890310	      1.01533197	     -0.96913409	    -27.69151703	     -1.66917655	      8.85690817	      1.17412812	      0.02049240	      9.76347532	      0.00000000	      0.00000000	    -27.90072852	      3.18354062	     -7.38166547	      4.47873545	      0.07816868	     14.29012032	      0.00000000	      0.00000000	    -35.91648657	     -1.05850739	      7.90070224	     -0.10945507	     -6.22341365	    -18.63846423	     47.48132268	     88.81731296	      0.00000000	      0.00000000	     -8.23391639	     -6.57592021	    -12.52352180	     70.55936102	     88.72277170	      0.00000000	      0.00000000
      9.22000000	      4.38845534	     24.95632747	     82.58844301	      0.52645550	      1.01518243	     -0.96963566	    -27.65254623	     -1.68824588	      8.98247124	      1.44585923	      0.02523500	      9.80401856	      0.00000000	      0.00000000	    -28.02878968	      3.23197651	     -7.32025595	      4.47758946	      0.07814868	     14.29095322	      0.00000000	      0.00000000	    -35.85066298	     -1.00157438	      7.76868437	     -0.26549229	     -6.34978169	    -18.79127784	     47.42151518	     88.81222050	      0.00000000	      0.00000000	     -8.42611955	     -6.56350325	    -12.50232953	     70.64155799	     88.72472350	      0.00000000	      0.00000000
      9.23000000	      4.36357424	     25.06519349	     82.71263724	      0.52430061	      1.01489060	     -0.96930347	    -26.98819162	     -1.67622274	      8.98322674	      2.83634314	      0.04950353	     10.64112592	      0.00000000	      0.00000000	    -28.19660510	      3.35215084	     -6.95429833	      4.31675515	      0.07534159	     14.35266096	      0.00000000	      0.00000000	    -35.92945810	     -1.05145971	      7.57361230	     -0.17066010	     -6.29538850	    -19.31557510	     47.39692992	     88.82347708	      0.00000000	      0.00000000	     -8.75655004	     -6.66014946	    -12.55172669	     71.35519292	     88.72015443	      0.00000000	      0.00000000
      9.24000000	      4.25194905	     25.08557919	     82.76012138	      0.52229102	      1.01460143	     -0.96885831	    -25.92539572	     -1.74606177	      9.12744756	      4.74715000	      0.08285340	     11.83883325	      0.00000000	      0.00000000	    -28.17423452	      3.57544336	     -6.96519610	      4.29046086	      0.07488267	     14.28800819	      0.00000000	      0.00000000	    -35.88982404	     -1.19088720	      7.43727427	     -0.14140414	     -6.30887410	    -19.60382974	     47.42177617	     88.82648282	      0.00000000	      0.00000000	     -8.90983267	     -6.72679262	    -12.53840367	     71.63626557	     88.71951856	      0.00000000	      0.00000000
